<?xml version="1.0" encoding="UTF-8"?>
<svg version="1.1" viewBox="0 0 2048 1397" width="1008" height="688" xmlns="http://www.w3.org/2000/svg">
<path transform="translate(997,36)" d="m0 0h47l31 3 23 4 20 5 27 9 19 8 28 14 20 13 9 6 5 3 5 5 13 10 11 10 8 7 5 5v-52l2-9 4-6 7-4h9l7 3 8 7 7 11 8 18 11 30 9 30 8 30 9 45 6 40 5 44 3 38 2 34 2 62v180l-3 6-3 2-32 3-11 4-8 6-8 9-7 15-2 8-1 61-1 293h-36l-1-1v-31l1-84h-103v114l-1 2h-35l-1-11v-520l-3-20-6-18-12-22-7-14-4-13-3-18-1-13v-22l3-34 5-30 6-24 8-24 8-18 6-10 6-7 6-3h11l7 4 8 10 9 17 9 23 7 23 6 27 3 22 1 11v43l-3 19-6 18-12 23-8 16-4 11-3 17-1 10-1 24 1 135v217l103-1 1-262 2-123 2-145v-216l-6-5-7-8-12-12-11-9-12-10-12-8-18-11-27-14-19-8-30-10-28-6-18-3-20-2h-46l-25 3-29 6-26 8-21 8-26 12-21 12-18 12-13 10-11 9-10 9-8 7-8 8-9 11-11 13-12 17-13 21-8 15-11 27-7 23-5 22-3 22-1 16v20l2 26 3 19 6 24 7 21 9 20 10 19 11 16 11 13 14 15 15 13 16 11 17 10 19 10 14 10 9 8 11 14 8 14 5 14 2 11 1 123 1 256 4 13 6 12-2 1h-35l-4-6-3-6-16 9-12 4-6 1h-16l-13-3-16-8-8-6-7-6-9-12-6-12-4-15v-22l3-13 8-16 8-10 9-9 13-8 13-5 12-2h10l14 3 17 9 3 1v-267l-2-14-6-14-8-10-10-9-16-10-17-10-12-8-13-10-10-9-8-7-14-15-11-14-14-21-9-16-9-19-10-30-6-27-3-23-1-16v-20l2-26 5-29 7-26 7-19 10-23 14-26 11-16 12-16 12-14 14-15 7-7 11-9 9-8 19-14 19-12 16-9 16-8 27-11 28-9 30-7 29-4zm-182 898-10 3-11 8-8 11-3 8-1 15 3 12 6 10 7 7 8 5 11 3h11l10-3 11-7 7-9 4-10 1-4v-16l-4-11-6-9-8-7-8-4-8-2z" fill="#8B0067"/>
<path transform="translate(1135,225)" d="m0 0h11l7 4 8 10 9 17 9 23 7 23 6 27 3 22 1 11v43l-3 19-6 18-12 23-8 16-4 11-3 17-1 10-1 24 1 135v217l103-1 1-262 1-2h4l1 2 1 10 5 6v15l4 2 3 8 2 4 7-2v7l-1 6v11l1 5 2-1 1 3 1 8 2 10 1 1 1-17h1v45l-1 293h-36l-1-1v-31l1-84h-103v114l-1 2h-35l-1-11v-520l-3-20-6-18-12-22-7-14-4-13-3-18-1-13v-22l3-34 5-30 6-24 8-24 8-18 6-10 6-7z" fill="#DC0050"/>
<path transform="translate(946,227)" d="m0 0h7l1 8 1 26 1 53 1 13 1 105 3 11 10 1 7-2 3-6 1-5 1-104 1-22 1-49 1-22 1-7h6l1 1 4 60 3 52 3 46 2 40 2 14h17l2-12 3-53 2-61 1-61 1-26h5l2 6 5 40 5 60 2 30v120l-3 10-6 10-5 5-9 6-19 8-3 3-3 10v55l4 73 5 79 2 34 1 52v39l-2 15-4 6-6 5-3 2-6 1h-10l-10-4-7-8-3-9-1-24v-21l1-46 3-63 6-97 3-45v-39l-3-12-5-5-4-3-12-6-14-9-13-11-10-13-8-13-8-17-8-22-6-30-2-19v-51l4-33 6-27 9-27 7-14h1l-1 29-3 43v65l2 21 3 12 6 21 4 8 10 1 2-20 1-28 1-10 1-24 2-32 1-9 1-26 2-34z" fill="#8B0067"/>
<path transform="translate(1135,225)" d="m0 0h11l7 4 8 10 9 17 9 23 7 23 6 27 3 22 1 11v43l-3 19-6 18-12 23-8 16-4 11-3 17-1 10-1 24v166l-2 3-3-1-2-14-3-13-2-7h-3l-6-21-4-7-2-17-1-3-1-6-1-16-2-12-1 51h-1l-1-131-3-20-6-18-12-22-7-14-4-13-3-18-1-13v-22l3-34 5-30 6-24 8-24 8-18 6-10 6-7z" fill="#8B0067"/>
<path transform="translate(54,796)" d="m0 0h108l12 3 16 8 12 11 7 9 6 12 4 14v24l-5 16-8 13-9 10h-2v2l9 3 11 7 10 10 8 14 4 15v20l-4 15-7 13-8 10-10 9-15 8-15 4-11 1h-104l-9-1-1-2v-247zm34 35v77h62l9-2 12-7 8-9 5-11 2-8v-9l-2-9-6-10-8-7-9-4-4-1zm0 110v71h83l13-4 9-6 7-10 3-12v-8l-4-13-9-10-12-6-10-2z" fill="#DC0050"/>
<path transform="translate(857,632)" d="m0 0h2v2l4 2 3 9 2 19 3-1 2 9 1 4 2 4h3l3 3 1 6h1v15l2 1 1 8 2 6 2-1 1 6h1l2 23 1 273 4 13 6 12-2 1h-35l-4-6-3-6-16 9-12 4-6 1h-16l-13-3-16-8-8-6-7-6-9-12-6-12-4-15v-22l3-13 8-16 8-10 9-9 13-8 13-5 12-2h10l14 3 17 9 3 1v-267zm-42 302-10 3-11 8-8 11-3 8-1 15 3 12 6 10 7 7 8 5 11 3h11l10-3 11-7 7-9 4-10 1-4v-16l-4-11-6-9-8-7-8-4-8-2z" fill="#DC0050"/>
<path transform="translate(1940,901)" d="m0 0h19l12 3 16 8 12 11 7 10 6 12 4 16v23l-2 1h-98l3 10 6 8 8 6 11 4 5 1 13-1 11-4 10-7 4-4 4 2 17 17 3 5-9 8-11 7-14 6-12 3-14 1-15-2-13-4-14-8-12-11-8-11-5-10-4-15v-22l4-16 8-16 11-13 12-9 13-6zm2 31-9 3-9 7-6 7-2 4v4h64l-1-5-6-10-9-7-9-3z" fill="#DC0050"/>
<path transform="translate(443,901)" d="m0 0h18l12 3 16 8 12 11 6 7 8 15 4 17v22l-2 1h-98l5 13 7 8 11 6 14 2 13-2 12-6 9-8 5 2 18 18 1 4-11 9-14 8-18 6-5 1h-23l-12-3-16-8-13-11-9-12-5-10-4-14-1-17 2-15 5-15 6-10 7-9 9-8 10-6 11-5zm2 31-9 3-10 9-6 9-1 4h62l2-1-3-9-5-7-9-6-7-2z" fill="#DC0050"/>
<path transform="translate(1422,900)" d="m0 0h9l14 2 14 5 12 7 12 11 9 13 7 16 2 10v19l-4 16-8 16-11 12-8 7-12 7-15 5-12 2-17-1-16-5-14-8-10-9-8-9-8-16-3-10-1-7v-16l2-12 5-13 9-14 8-9 13-9 13-6 11-3zm-1 33-10 3-10 7-7 8-5 10-1 4v17l3 10 6 9 7 7 10 5 8 2h10l12-3 12-8 8-11 4-13v-10l-3-12-7-11-9-8-11-5-5-1z" fill="#DC0050"/>
<path transform="translate(635,901)" d="m0 0h22l11 3 12 6 11 9 8 11 5 11 2 9 1 12v83l-1 1h-33l-1-4-1-84-4-11-7-8-8-4-9-2-12 1-10 5-8 7-4 8-1 4-1 86-1 2h-34l-1-100-2-20-4-15-2-7 1-1 33-1 3 3 4 12 8-6 10-6z" fill="#DC0050"/>
<path transform="translate(1549,903)" d="m0 0h31l1 1 1 91 4 9 8 7 8 3 11 1 9-2 9-5 3-1 2-4 4-6 2-6 1-88h33l1 5v98l2 22 4 14-1 4h-34l-3-5-1-8-15 9-9 4-12 2h-9l-11-2-12-5-11-8-9-10-6-12-3-11v-96z" fill="#DC0050"/>
<path transform="translate(976,626)" d="m0 0 2 3 3 13-1 6v9l-1 2 3-1 2 10 5 8 2 1v4l4 2 3 4 1-3h2l3 18 3 3 2 5 1 5 1 3v9l2 1 3 48 1 52v39l-2 15-4 6-6 5-3 2-6 1h-10l-10-4-7-8-3-9-1-24v-21l1-46 3-63 5-80z" fill="#DC0050"/>
<path transform="translate(1771,901)" d="m0 0h24l16 4 18 8 4 3-2 4-9 12-7 9-3 1-17-8-10-2-10 1-6 4-1 2v7l6 5 10 4 21 7 14 7 9 8 6 10 3 12-1 14-5 12-9 10-11 7-12 4-14 2-17-1-15-4-16-7-16-10-1-3 8-10 11-12 1-2 5 1 8 6 12 6 11 3h16l8-4 3-6-1-5-5-5-8-4-29-10-13-7-7-6-6-10-3-12 1-10 4-11 6-8 9-8 10-5z" fill="#DC0050"/>
<path transform="translate(290,816)" d="m0 0h33l1 1 1 186 2 6 3 3 5 2 13 2 1 2 1 14v13l-5 2h-18l-11-4-13-9-7-9-4-8-2-9z" fill="#DC0050"/>
<path transform="translate(1648,1230)" d="m0 0 20 2 43 7 30 3 34 2 142 3 61 2 5 1v1l-78 2-105 2-33 1-42 3-29 4-29 5-9 1h-13l-10-3-5-5-3-6v-9l3-7 5-5 6-3z" fill="#FB0050"/>
<path transform="translate(356,1232)" d="m0 0h23l8 5 4 8v10l-4 8-4 4-7 2h-19l-28-5-20-4-26-3-32-2-38-1-120-2-36-1-8-1v-1l15-1 168-4 46-2 31-3z" fill="#FB0050"/>
<path transform="translate(976,626)" d="m0 0 2 3 3 13-1 6v9l-1 2 3-1 2 10 5 8 2 1v4l4 2 3 4 1-3h2l3 18 3 3 2 5 1 5 1 3v9l2 1 3 48v55l-1 4-4-1-1-3-1-11-1-5-1-20h2l-3-13-1-1-2 5-10-2v-6h-2l-4-9-2-7-4-5-4-10-2-11-2 3-1-11-2-5v-18l4-64z" fill="#BA0057"/>
<path transform="translate(454,1188)" d="m0 0h45l12 2 9 5 8 9 4 11v15l-4 10-6 7-10 6-4 1 4 10 13 20 9 15v3h-11l-7-9-12-20-10-16-2-1-35-1v34l-1 13h-10l-1-2v-106l1-5zm3 11-1 16v28l1 1h43l10-3 7-6 3-7v-14l-6-9-5-4-8-2z" fill="#FFFDFD"/>
<path transform="translate(1377,1189)" d="m0 0h6l5 5 10 14 14 18 10 13 14 17 16 20 4 1v-87l1-1h10v112l-1 1h-7l-5-5-11-13-11-14-14-17-10-13-14-18-1-3-5-1v70l-1 14h-11v-112z" fill="#FFFDFD"/>
<path transform="translate(1136,1189)" d="m0 0h60l11 4 9 8 6 12 1 4v13l-4 9-5 7-10 6-5 2 2 7 26 39v2h-11l-6-7-16-23-12-16h-33l-1 18-1 28h-10l-1-1zm12 9-1 1v44l1 1 11 1h28l12-2 8-6 4-7v-15l-5-8-6-5-9-3-13-1z" fill="#FFFDFD"/>
<path transform="translate(1264,630)" d="m0 0h4l1 2 1 10 5 6v15l4 2 3 8 2 4 7-2v7l-1 6v11l1 5 2-1 1 3 1 8 2 10 1 1 1-17h1v45l-1 51-1 18h-2l1 6-2-1-2-7-1-2-2-13-1-15-1-1-1-10-3-4v-3l-4-2-6-12-3-23-1-6-2-10-2-1-2-22z" fill="#BA0056"/>
<path transform="translate(569,1188)" d="m0 0h81l1 1v8l-1 1-70 1v38l50 1 13 1v9l-2 1h-62l1 43 71 1v9l-13 1h-69l-2-7 1-107z" fill="#FFFDFD"/>
<path transform="translate(708,1186)" d="m0 0h21l15 5 9 7 6 9-2 4-3 2-4-1-9-9-8-4-4-1h-20l-10 4-5 4-4 9 1 8 3 4v2l4 2 8 3 29 5 12 4 8 6 6 7 3 7 1 8-2 10-5 9-7 7-10 5-12 3h-17l-12-3-10-5-9-8-6-10v-8l4-2 5 1 6 12 7 6 8 4 12 2h8l12-3 7-4 5-6 3-10-2-9-6-7-9-4-32-6-13-5-9-8-4-11v-7l4-11 5-7 11-7z" fill="#FFFDFD"/>
<path transform="translate(1125,583)" d="m0 0h1l2 22 1 2 1 18 1 6h1l2 18 4 7 2 7 3 9v5l4-1 4 19 2 9 1 7h2l2-2v114l-1 7-4-2-1-6-1-19-1-8v-5l-1-1-1-8 1-5h-2v-3h-2l-2-3-2-1-7-21-4-42-2-17h-1l-1-9-1 47h-1v-81z" fill="#B90057"/>
<path transform="translate(908,1115)" d="m0 0h325v10h-330l-1-1v-7z" fill="#FC0050"/>
<path transform="translate(940,1189)" d="m0 0h6l5 10 18 44 13 31 11 26-1 3h-9l-4-4-10-24-1-1-18-1h-28l-6 1-10 25-3 4h-10l-1-2 19-46 20-49 7-16zm-1 27-11 27-5 12 1 5 1 1 14 1 22-1-1-8-13-33-3-4z" fill="#FFFDFD"/>
<path transform="translate(857,632)" d="m0 0h2v2l4 2 3 9 2 19 3-1 2 9 1 4 2 4h3l3 3 1 6h1v15l2 1 1 8 2 6 2-1 1 6h1l2 23-1 85-1 16-3-1-2-11-1-4-2-6-1-44-2-1h2l-1-5h-2v-3l-3-1-4-8-3-10-2-10-2-19-2-15-2-1-1-10-1 32h-1l-1-84z" fill="#BA0056"/>
<path transform="translate(967,946)" d="m0 0h81l3 1 1 14v11l-1 9h-87l-1-8v-24l1-2z" fill="#DD0050"/>
<path transform="translate(1301,1188)" d="m0 0 4 4 12 29 15 39 13 30 4 10v2h-11l-7-14-6-15h-53l-3 9-8 18-2 2h-10l1-5 10-25 19-44 12-30 4-8zm-4 24-11 26-8 20v3l2 1h40l-9-27-9-22z" fill="#FFFDFD"/>
<path transform="translate(1013,1189)" d="m0 0h11l1 79 2 9 6 9 12 6 10 2 11-1 9-4 8-6 5-10 1-7 1-77h10l1 1v72l-2 15-4 10-8 9-14 7-8 2h-15l-16-5-9-6-7-8-4-10-1-4z" fill="#FFFDFD"/>
<path transform="translate(790,1188)" d="m0 0h22l68 1v9l-41 1-1 21-1 82-1 1-9-1-1-2v-102h-42v-9z" fill="#FFFDFD"/>
<path transform="translate(1502,1188)" d="m0 0h34l59 1v9h-42l-1 104-1 1h-9l-1-1v-104h-41l-1-6 1-3z" fill="#FFFDFD"/>
<path transform="translate(1881,961)" d="m0 0h2l2 10 1 12-1 2h2v6h2l2 6 4 8 2 5 2 1-1 4 5 2 5 4v2l2 1 5 4 13 5 10 2 19 1 15-2 14-4 8-4 4-6-2-6-4-3h-3v-2l-10 3-7-1 4-4 8-6 3-3 4 2 17 17 3 5-9 8-11 7-14 6-12 3-14 1-15-2-13-4-14-8-12-11-8-11-5-10-4-15v-22z" fill="#FB0050"/>
<path transform="translate(386,955)" d="m0 0 4 2 1 3-3 10 1 5 1 8 3 11 3 5v4h2v3h2l2 5h2v2h2l3 6v2h2v2h2v2l6 2 8 5 7 1 6 2 8 1h21l19-6 3-1v-2l9-5 1-2h2v-2h2l-3-8-11-2-2 1v-2l-7 1-5 1 5-4 8-7 5 2 18 18 1 4-11 9-14 8-18 6-5 1h-23l-12-3-16-8-13-11-9-12-5-10-4-14-1-17 2-15z" fill="#FB0050"/>
<path transform="translate(1363,938)" d="m0 0 1 3-2 6-1 8-2 9v6l1 2v9l2 7 1 7h2l3 7 1 4h2l4 5 3 7 11 10 10 4 15 4 5 1h17l15-4 17-8 7-6h2v-2l6-4 3-3 3-1 1-3 3-3 2 1-7 12-9 10-9 8-12 7-15 5-12 2-17-1-16-5-14-8-10-9-8-9-8-16-3-10-1-7v-16l2-12 5-13z" fill="#FB0050"/>
<path transform="translate(1740,999)" d="m0 0 5 1 8 6 12 6 11 3-2 4-6 1-6-2-5-2-5-3-9-1-5 1v2h-2l-1 6 3 5 5 4 9 4 9 2h3l9 2h15l13-2h5v-2l8-2 1-2 9-5h5l2-5 1 3-6 8-8 7-12 6-12 3-17 1-14-2-18-6-15-8-10-7 2-5 10-11z" fill="#FB0050"/>
<path transform="translate(1123,652)" d="m0 0h1l1 286h1l4 58 1 11 1 21 3 5v2l4 1v2l-2 1 6 1h5l1-1h7l2 1 1-107h1v111l-1 2h-35l-1-11z" fill="#FC0050"/>
<path transform="translate(750,963)" d="m0 0 2 2 2 13 2 11 1 6h2l7 14 3 4v2h2l7 8 5 6 11 5 7 1 4 1 7 1h18l10-3 11-4h5l6 2v2l-16 9-12 4-6 1h-16l-13-3-16-8-8-6-7-6-9-12-6-12-4-15v-22z" fill="#FB0050"/>
<path transform="translate(1547,933)" d="m0 0h1l1 36 2 15 3 15v4h2l4 10 3 3v2l4 2 1 4h2v2l5 2 8 5 16 4 12-1 12-3 8-4h5l3 1 1 3-1 3-14 8-9 3-8 1h-9l-11-2-12-5-11-8-9-10-6-12-3-11z" fill="#FC0050"/>
<path transform="translate(290,934)" d="m0 0h1l1 23 1 27 2 9 1 16h2v4l2 1 4 7 5 5 5 4v2l4 2 15 5h7v-2h2l1-3 7-2v13l-5 2h-18l-11-4-13-9-7-9-4-8-2-9z" fill="#FC0050"/>
<path transform="translate(1263,949)" d="m0 0h1l1 8 2 31 2 19 1 18 3 8 8 4-1 3h3 5l4-3h4l3-4v13h-36l-1-1v-31z" fill="#FC0050"/>
<path transform="translate(166,1035)" d="m0 0 5 2 8 4 1-6 4 1v2l9 2v2l-15 4-11 1h-104v-1l56-2 4-2 1-3 13-1 10-2h12l5 1z" fill="#FB0050"/>
<path transform="translate(706,962)" d="m0 0h1v83l-1 1h-33l-1-4v-49l2 1 1 24 4 16 3 1-1 4 5 2 3 1h5l3-1v-2h8z" fill="#FB0050"/>
<path transform="translate(572,976)" d="m0 0h1l1 11 1 27 2 16 2 4v3l10 4h5l4-3h6l2-2 1 1v7l-1 2h-34z" fill="#FC0050"/>
<path transform="translate(1733,935)" d="m0 0 1 2h2l1 2 1 14 2 1 1 11 3 3 5 4 8 4 20 6 10 4 9 5 5 5-5-2-19-7-17-6-13-7-7-6-6-10-3-12 1-10z" fill="#FA0050"/>
<path transform="translate(897,1030)" d="m0 0 3 3 6 12-2 1h-35l-4-6-2-6 8 1 5 4v2l7 1 8-1 1-4h2l1-4h2z" fill="#FA0050"/>
<path transform="translate(1645,1034)" d="m0 0 13 5 2 1v2l10-2 5-5h6l2 10-1 1h-34l-3-5-1-5z" fill="#F90050"/>
<path transform="translate(512,981)" d="m0 0h6l-1 4h-98l2-2h80l9-1z" fill="#FD0050"/>
<path transform="translate(1265,575)" d="m0 0h1l3 24 1 20-1 5-1 2h-3l-1-31v-14z" fill="#BF0056"/>
<path transform="translate(963,949)" d="m0 0h2v2h2l1 3-1 4v10l6 10 3 2-2 1h-10l-1-8z" fill="#FC0050"/>
<path transform="translate(333,1015)" d="m0 0h10l5 1 1 5-1 2-5 1-4-3v-2h-3v-2l-3-1z" fill="#F90050"/>
<path transform="translate(790 1e3)" d="m0 0 7 6 9 6 11 3v2l-7 1v-3l-4 1-6-3-1-3-5-3-4-5z" fill="#F80050"/>
<path transform="translate(427 1e3)" d="m0 0 4 2 11 6 5 1-2 2h-3l-1 2-5-2v-2l-2-1-1-3-4-2z" fill="#F90050"/>
<path transform="translate(1921 1e3)" d="m0 0 4 2 8 6 11 4-4 2-4 1-3-4-6-3z" fill="#FA0050"/>
<path transform="translate(2015,980)" d="m0 0 1 4-2 1h-16l-7-1v-1h20l3-1z" fill="#FC0050"/>
<path transform="translate(1813,966)" d="m0 0 10 6 8 9-1 2-7-7v-2l-5-2-3-1z" fill="#FA0050"/>
<path transform="translate(862,969)" d="m0 0 2 4v9l-3 4-1-3 1-13z" fill="#F70050"/>
<path transform="translate(1393,997)" d="m0 0h2l7 8 10 7-2 1-8-4-5-5-1-3h-2z" fill="#F80050"/>
<path transform="translate(1469,971)" d="m0 0 3 4-3 10-3 3 1-8z" fill="#FB0050"/>
<path transform="translate(1802,935)" d="m0 0 5 2h11l-4 5-6-2-6-3z" fill="#F80050"/>
<path transform="translate(971,699)" d="m0 0h1l1 14-2 5h-1v-13z" fill="#DF0050"/>
<path transform="translate(1803 1e3)" d="m0 0 3 1 1 6-1 2h-5l2-5z" fill="#FA0050"/>
<path transform="translate(564,903)" d="m0 0 3 1-2 1 2 2h3l-2 5-3-1-2-7z" fill="#FB0050"/>
<path transform="translate(859,989)" d="m0 0h1l1 6h-2v2h-2l-1 3h-2l2-5z" fill="#FA0050"/>
</svg>
